<?xml version="1.0" encoding="utf-8"?>
<!-- Generator: Adobe Illustrator 16.0.0, SVG Export Plug-In . SVG Version: 6.00 Build 0)  -->
<!DOCTYPE svg PUBLIC "-//W3C//DTD SVG 1.1//EN" "http://www.w3.org/Graphics/SVG/1.1/DTD/svg11.dtd">
<svg version="1.1" id="Capa_1" xmlns="http://www.w3.org/2000/svg" xmlns:xlink="http://www.w3.org/1999/xlink" x="0px" y="0px"
	 width="5000px" height="5000px" viewBox="0 0 5000 5000" style="enable-background:new 0 0 5000 5000;" xml:space="preserve">
<style type="text/css">
<![CDATA[
	.st0{fill:none;stroke:#000000;stroke-miterlimit:10;}
]]>
</style>
<path class="st0" d="M3445.738,2506.577h-614.07c-31.297-120.286-125.445-214.435-245.73-245.73v-872.011
	c0-47.547-38.52-85.979-85.98-85.979s-85.98,38.433-85.98,85.979v872.011c-147.886,38.433-257.939,171.874-257.939,331.711
	c0,189.672,154.248,343.921,343.92,343.921c159.751,0,293.278-110.055,331.711-257.941h614.069c47.461,0,85.98-38.433,85.98-85.979
	S3493.285,2506.577,3445.738,2506.577z M2499.957,2764.518c-94.836,0-171.96-77.124-171.96-171.96s77.124-171.96,171.96-171.96
	s171.96,77.124,171.96,171.96S2594.793,2764.518,2499.957,2764.518z"/>
<path class="st0" d="M4315.168,839.51l352.176,352.174c16.164,16.165,38.002,25.192,60.787,25.192s44.71-9.027,60.788-25.192
	c272.299-272.213,272.299-715.268,0-987.48s-715.269-272.213-987.481,0c-16.164,16.164-25.191,37.917-25.191,60.788
	s9.027,44.709,25.191,60.788l392.155,392.155l-146.08,146.08c-410.984-368.338-953.434-592.918-1547.47-592.918
	S1363.559,495.676,952.574,864.014l-146.167-146.08l392.155-392.155c16.164-16.164,25.191-37.917,25.191-60.788
	s-9.027-44.709-25.191-60.788C926.35-68.01,483.38-68.01,211.081,204.203c-272.299,272.213-272.299,715.268,0,987.481
	c16.164,16.165,38.003,25.192,60.788,25.192c22.785,0,44.709-9.027,60.788-25.192L684.832,839.51l144.102,144.103
	c-402.301,417.605-650.439,984.729-650.439,1608.945c0,851.03,460.595,1596.134,1145.341,2000.327l-260.348,260.348
	c-33.619,33.617-33.619,87.957,0,121.576c16.766,16.766,38.776,25.191,60.787,25.191s44.021-8.426,60.788-25.191l296.632-296.632
	c307.637,150.81,653.19,235.843,1018.262,235.843s710.625-85.033,1018.262-235.843l296.632,296.632
	c16.766,16.766,38.776,25.191,60.788,25.191c22.011,0,44.021-8.426,60.788-25.191c33.618-33.619,33.618-87.958,0-121.576
	l-260.349-260.348c684.746-404.193,1145.342-1149.297,1145.342-2000.327c0-624.216-248.139-1191.34-650.439-1608.945
	L4315.168,839.51z M4667.258,325.778c184.513,184.514,203.084,473.063,55.801,678.642l-734.356-734.442
	C4194.194,122.693,4482.658,141.179,4667.258,325.778z M276.856,1004.333c-147.284-205.492-128.712-494.041,55.801-678.555
	c184.513-184.513,473.063-202.999,678.555-55.801L276.856,1004.333z M2499.957,4742.06
	c-1185.235,0-2149.502-964.267-2149.502-2149.502S1314.722,443.056,2499.957,443.056s2149.502,964.267,2149.502,2149.502
	S3685.278,4742.06,2499.957,4742.06z"/>
<path class="st0" d="M2499.957,862.553c47.461,0,85.98-38.434,85.98-85.98v-85.98c0-47.547-38.52-85.98-85.98-85.98
	s-85.98,38.434-85.98,85.98v85.98C2413.977,824.033,2452.496,862.553,2499.957,862.553z"/>
<path class="st0" d="M2499.957,4301.756c-47.461,0-85.98,38.434-85.98,85.98v85.979c0,47.548,38.52,85.98,85.98,85.98
	s85.98-38.433,85.98-85.98v-85.979C2585.938,4340.189,2547.504,4301.756,2499.957,4301.756z"/>
<path class="st0" d="M4305.539,2668.134h85.98c47.461,0,85.979-38.433,85.979-85.979s-38.519-85.98-85.979-85.98h-85.98
	c-47.461,0-85.98,38.434-85.98,85.98S4258.078,2668.134,4305.539,2668.134z"/>
<path class="st0" d="M694.375,2496.174h-85.98c-47.461,0-85.979,38.434-85.979,85.98s38.519,85.979,85.979,85.979h85.98
	c47.461,0,85.98-38.433,85.98-85.979S741.922,2496.174,694.375,2496.174z"/>
<path class="st0" d="M3776.762,1183.773l-60.789,60.788c-33.617,33.618-33.617,87.958,0,121.576
	c16.767,16.766,38.777,25.192,60.789,25.192c22.011,0,44.021-8.427,60.787-25.192l60.788-60.788
	c33.618-33.618,33.618-87.958,0-121.576S3810.294,1150.155,3776.762,1183.773z"/>
<path class="st0" d="M1162.451,3798.084l-60.788,60.788c-33.618,33.618-33.618,87.958,0,121.576
	c16.766,16.767,38.776,25.192,60.788,25.192c22.011,0,44.021-8.426,60.787-25.192l60.788-60.788
	c33.618-33.618,33.618-87.957,0-121.576C1250.408,3764.466,1196.068,3764.553,1162.451,3798.084z"/>
<path class="st0" d="M3837.549,3798.084c-33.617-33.617-87.957-33.617-121.576,0c-33.618,33.618-33.617,87.958,0,121.576
	l60.789,60.788c16.766,16.767,38.776,25.192,60.787,25.192c22.012,0,44.022-8.426,60.788-25.192
	c33.618-33.618,33.618-87.958,0-121.576L3837.549,3798.084z"/>
<path class="st0" d="M1223.238,1183.773c-33.617-33.618-87.957-33.618-121.575,0s-33.618,87.958,0,121.576l60.788,60.788
	c16.766,16.766,38.776,25.192,60.787,25.192c22.012,0,44.022-8.427,60.788-25.192c33.618-33.618,33.618-87.958,0-121.576
	L1223.238,1183.773z"/>
</svg>
