<?xml version="1.0" encoding="UTF-8" standalone="no"?>
<!-- Created with Inkscape (http://www.inkscape.org/) -->

<svg
   xmlns:dc="http://purl.org/dc/elements/1.1/"
   xmlns:cc="http://creativecommons.org/ns#"
   xmlns:rdf="http://www.w3.org/1999/02/22-rdf-syntax-ns#"
   xmlns:svg="http://www.w3.org/2000/svg"
   xmlns="http://www.w3.org/2000/svg"
   xmlns:sodipodi="http://sodipodi.sourceforge.net/DTD/sodipodi-0.dtd"
   xmlns:inkscape="http://www.inkscape.org/namespaces/inkscape"
   width="99.542091mm"
   height="111.27702mm"
   viewBox="0 0 99.542091 111.27702"
   version="1.1"
   id="svg9964"
   inkscape:version="0.92.0 r15299"
   sodipodi:docname="jam.svg">
  <defs
     id="defs9958" />
  <sodipodi:namedview
     id="base"
     pagecolor="#ffffff"
     bordercolor="#666666"
     borderopacity="1.0"
     inkscape:pageopacity="0.0"
     inkscape:pageshadow="2"
     inkscape:zoom="0.35"
     inkscape:cx="-544.7461"
     inkscape:cy="241.71586"
     inkscape:document-units="mm"
     inkscape:current-layer="layer1"
     showgrid="false"
     fit-margin-top="0"
     fit-margin-left="0"
     fit-margin-right="0"
     fit-margin-bottom="0"
     inkscape:window-width="1366"
     inkscape:window-height="705"
     inkscape:window-x="313"
     inkscape:window-y="1072"
     inkscape:window-maximized="1" />
  <metadata
     id="metadata9961">
    <rdf:RDF>
      <cc:Work
         rdf:about="">
        <dc:format>image/svg+xml</dc:format>
        <dc:type
           rdf:resource="http://purl.org/dc/dcmitype/StillImage" />
        <dc:title></dc:title>
      </cc:Work>
    </rdf:RDF>
  </metadata>
  <g
     inkscape:label="Layer 1"
     inkscape:groupmode="layer"
     id="layer1"
     transform="translate(-66.64562,-101.5103)">
    <g
       id="g4816"
       transform="matrix(0.2173366,0,0,0.2173366,60.778346,101.51033)"
       style="fill:#49dd9b;fill-opacity:1">
      <g
         id="g4741"
         style="fill:#49dd9b;fill-opacity:1">
        <g
           id="g4739"
           style="fill:#49dd9b;fill-opacity:1">
          <path
             id="path4737"
             d="m 302.78,239.712 c -4.434,-4.429 -11.619,-4.429 -16.05,0.001 l -21.306,21.306 c -2.937,-1.089 -6.11,-1.687 -9.422,-1.687 -3.314,0 -6.49,0.599 -9.429,1.691 L 202.78,217.228 c -4.431,-4.429 -11.616,-4.429 -16.046,0 -4.431,4.431 -4.432,11.616 0,16.048 l 43.797,43.798 c -1.089,2.935 -1.686,6.108 -1.686,9.418 0,14.975 12.183,27.159 27.159,27.159 14.976,0 27.159,-12.183 27.159,-27.159 0,-3.312 -0.598,-6.487 -1.688,-9.426 l 21.306,-21.306 c 4.43,-4.431 4.43,-11.616 -0.001,-16.048 z m -46.778,53.513 c -3.714,0 -6.735,-3.022 -6.735,-6.735 0,-3.713 3.022,-6.735 6.735,-6.735 3.714,0 6.735,3.022 6.735,6.735 -0.001,3.714 -3.022,6.735 -6.735,6.735 z"
             inkscape:connector-curvature="0"
             style="fill:#49dd9b;fill-opacity:1" />
        </g>
      </g>
      <g
         id="g4747"
         style="fill:#49dd9b;fill-opacity:1">
        <g
           id="g4745"
           style="fill:#49dd9b;fill-opacity:1">
          <path
             id="path4743"
             d="m 389.959,114.459 12.856,-18.36 51.541,36.09 c 1.92,1.346 4.196,2.053 6.508,2.053 0.656,0 1.315,-0.057 1.97,-0.172 2.964,-0.522 5.598,-2.2 7.324,-4.666 C 496.171,92.253 487.11,40.864 449.96,14.849 412.809,-11.168 361.418,-2.104 335.407,35.047 c -3.595,5.133 -2.346,12.208 2.786,15.802 l 46.034,32.234 -12.859,18.365 C 337.88,80.494 298.334,68.36 256.002,68.36 c -42.332,0 -81.877,12.134 -115.366,33.088 L 127.776,83.083 173.81,50.849 c 5.133,-3.595 6.381,-10.669 2.787,-15.802 C 150.584,-2.105 99.195,-11.166 62.043,14.848 24.892,40.861 15.83,92.25 41.843,129.402 c 1.726,2.466 4.361,4.144 7.324,4.666 0.655,0.117 1.314,0.172 1.97,0.172 2.312,0 4.589,-0.708 6.508,-2.053 l 51.541,-36.09 12.856,18.36 C 70.85,154.412 37.87,216.669 37.87,286.491 c 0,75.929 39.004,142.91 98.02,181.99 l -17.97,25.664 c -3.595,5.132 -2.346,12.208 2.786,15.802 1.981,1.388 4.25,2.054 6.498,2.054 3.576,0 7.097,-1.687 9.304,-4.84 l 18.986,-27.115 c 30.097,15.691 64.281,24.579 100.506,24.579 36.221,0 70.402,-8.886 100.496,-24.573 l 18.982,27.11 c 2.207,3.152 5.728,4.841 9.304,4.841 2.247,0 4.518,-0.666 6.498,-2.054 5.133,-3.595 6.38,-10.669 2.786,-15.802 L 376.101,468.49 C 435.122,429.411 474.13,362.427 474.13,286.494 474.133,216.669 441.154,154.412 389.959,114.459 Z M 361.392,39.391 c 20.088,-19.425 51.829,-22.564 75.553,-5.955 23.724,16.613 31.629,47.514 20.246,73.033 z M 54.814,106.47 C 43.43,80.951 51.335,50.049 75.06,33.437 85.435,26.173 97.34,22.686 109.137,22.686 c 15.177,0 30.173,5.775 41.475,16.706 z m 201.188,375.46 c -107.766,0 -195.439,-87.673 -195.439,-195.439 0,-107.766 87.673,-195.438 195.439,-195.438 107.766,0 195.439,87.673 195.439,195.438 0,107.765 -87.674,195.439 -195.439,195.439 z"
             inkscape:connector-curvature="0"
             style="fill:#49dd9b;fill-opacity:1" />
        </g>
      </g>
      <g
         id="g4753"
         style="fill:#49dd9b;fill-opacity:1">
        <g
           id="g4751"
           style="fill:#49dd9b;fill-opacity:1">
          <path
             id="path4749"
             d="m 256.002,126.07 c -88.456,0 -160.421,71.965 -160.421,160.421 0,88.456 71.965,160.421 160.421,160.421 88.456,0 160.42,-71.965 160.42,-160.421 0,-88.456 -71.964,-160.421 -160.42,-160.421 z m 106.64,251.014 -7.667,-7.666 c -4.431,-4.43 -11.616,-4.43 -16.046,0 -4.431,4.431 -4.431,11.616 0,16.046 l 7.666,7.667 c -21.731,18.489 -49.159,30.47 -79.246,32.895 v -10.912 c 0,-6.266 -5.08,-11.347 -11.347,-11.347 -6.267,0 -11.347,5.081 -11.347,11.347 v 10.912 C 214.567,423.601 187.14,411.62 165.408,393.131 l 7.667,-7.667 c 4.431,-4.431 4.431,-11.616 0,-16.046 -4.431,-4.43 -11.616,-4.43 -16.048,0 l -7.667,7.667 c -18.489,-21.731 -30.47,-49.159 -32.895,-79.247 h 10.912 c 6.267,0 11.347,-5.08 11.347,-11.347 0,-6.267 -5.08,-11.347 -11.347,-11.347 h -10.912 c 2.425,-30.088 14.406,-57.515 32.895,-79.247 l 7.667,7.667 c 2.216,2.215 5.12,3.323 8.023,3.323 2.903,0 5.808,-1.109 8.023,-3.323 4.431,-4.431 4.431,-11.616 0,-16.048 l -7.667,-7.667 c 21.731,-18.489 49.159,-30.47 79.247,-32.895 v 10.913 c 0,6.266 5.08,11.347 11.347,11.347 6.267,0 11.347,-5.081 11.347,-11.347 v -10.913 c 30.088,2.425 57.515,14.406 79.246,32.895 l -7.666,7.667 c -4.431,4.431 -4.431,11.616 0,16.048 2.216,2.215 5.12,3.323 8.023,3.323 2.903,0 5.808,-1.109 8.023,-3.323 l 7.667,-7.666 c 18.489,21.731 30.469,49.158 32.894,79.246 h -10.912 c -6.267,0 -11.347,5.08 -11.347,11.347 0,6.267 5.082,11.347 11.348,11.347 h 10.912 c -2.423,30.088 -14.404,57.515 -32.893,79.246 z"
             inkscape:connector-curvature="0"
             style="fill:#49dd9b;fill-opacity:1" />
        </g>
      </g>
      <g
         id="g4755"
         style="fill:#49dd9b;fill-opacity:1" />
      <g
         id="g4757"
         style="fill:#49dd9b;fill-opacity:1" />
      <g
         id="g4759"
         style="fill:#49dd9b;fill-opacity:1" />
      <g
         id="g4761"
         style="fill:#49dd9b;fill-opacity:1" />
      <g
         id="g4763"
         style="fill:#49dd9b;fill-opacity:1" />
      <g
         id="g4765"
         style="fill:#49dd9b;fill-opacity:1" />
      <g
         id="g4767"
         style="fill:#49dd9b;fill-opacity:1" />
      <g
         id="g4769"
         style="fill:#49dd9b;fill-opacity:1" />
      <g
         id="g4771"
         style="fill:#49dd9b;fill-opacity:1" />
      <g
         id="g4773"
         style="fill:#49dd9b;fill-opacity:1" />
      <g
         id="g4775"
         style="fill:#49dd9b;fill-opacity:1" />
      <g
         id="g4777"
         style="fill:#49dd9b;fill-opacity:1" />
      <g
         id="g4779"
         style="fill:#49dd9b;fill-opacity:1" />
      <g
         id="g4781"
         style="fill:#49dd9b;fill-opacity:1" />
      <g
         id="g4783"
         style="fill:#49dd9b;fill-opacity:1" />
    </g>
  </g>
</svg>
