<?xml version="1.0" encoding="UTF-8" standalone="no"?>
<!-- Created with Inkscape (http://www.inkscape.org/) -->

<svg
   xmlns:dc="http://purl.org/dc/elements/1.1/"
   xmlns:cc="http://creativecommons.org/ns#"
   xmlns:rdf="http://www.w3.org/1999/02/22-rdf-syntax-ns#"
   xmlns:svg="http://www.w3.org/2000/svg"
   xmlns="http://www.w3.org/2000/svg"
   xmlns:sodipodi="http://sodipodi.sourceforge.net/DTD/sodipodi-0.dtd"
   xmlns:inkscape="http://www.inkscape.org/namespaces/inkscape"
   width="99.868492mm"
   height="87.384804mm"
   viewBox="0 0 99.868492 87.384804"
   version="1.1"
   id="svg9340"
   inkscape:version="0.92.0 r15299"
   sodipodi:docname="map.svg">
  <defs
     id="defs9334" />
  <sodipodi:namedview
     id="base"
     pagecolor="#ffffff"
     bordercolor="#666666"
     borderopacity="1.0"
     inkscape:pageopacity="0.0"
     inkscape:pageshadow="2"
     inkscape:zoom="0.35"
     inkscape:cx="-349.84356"
     inkscape:cy="307.99377"
     inkscape:document-units="mm"
     inkscape:current-layer="layer1"
     showgrid="false"
     fit-margin-top="0"
     fit-margin-left="0"
     fit-margin-right="0"
     fit-margin-bottom="0"
     inkscape:window-width="1366"
     inkscape:window-height="705"
     inkscape:window-x="313"
     inkscape:window-y="1072"
     inkscape:window-maximized="1" />
  <metadata
     id="metadata9337">
    <rdf:RDF>
      <cc:Work
         rdf:about="">
        <dc:format>image/svg+xml</dc:format>
        <dc:type
           rdf:resource="http://purl.org/dc/dcmitype/StillImage" />
        <dc:title></dc:title>
      </cc:Work>
    </rdf:RDF>
  </metadata>
  <g
     inkscape:label="Layer 1"
     inkscape:groupmode="layer"
     id="layer1"
     transform="translate(-15.077657,-142.93855)">
    <g
       id="g5398"
       transform="matrix(0.20582488,0,0,0.20582488,15.077657,136.6967)"
       style="fill:#49dd9b;fill-opacity:1">
      <g
         id="g5342"
         style="fill:#49dd9b;fill-opacity:1">
        <path
           id="path5340"
           d="m 198.008,313.767 11.252,28.138 c -10.897,4.354 -21.765,7.672 -32.368,9.89 l -6.191,-29.669 c 8.886,-1.873 18.066,-4.682 27.307,-8.359 z m -90.238,36.342 c 11.105,3.197 22.806,4.915 34.768,5.092 l 0.476,-30.322 c -9.301,-0.153 -18.333,-1.451 -26.861,-3.906 z m 238.782,-52.925 c 8.741,1.723 17.268,4.714 25.352,8.887 l 13.927,-26.948 c -10.665,-5.479 -21.889,-9.418 -33.412,-11.672 z m -63.258,-24.875 9.068,28.903 c 9.264,-2.903 18.421,-4.737 27.241,-5.447 l -2.422,-30.209 c -11.079,0.891 -22.481,3.173 -33.887,6.753 z m -48.683,22.804 c -3.404,2.133 -6.753,4.083 -10.041,5.922 l 14.75,26.481 c 3.701,-2.082 7.491,-4.266 11.28,-6.637 5.214,-3.229 10.31,-6.104 15.313,-8.653 L 252.14,285.222 c -5.683,2.903 -11.55,6.19 -17.529,9.891 z M 318.423,106.14 c 0,12.379 -2.968,24.107 -8.237,34.415 l -67.579,132.374 c 0,0 -68.114,-133.474 -68.38,-134.033 -4.77,-9.892 -7.432,-21.028 -7.432,-32.756 0,-41.875 33.937,-75.814 75.812,-75.814 41.872,0 75.816,33.939 75.816,75.814 z m -30.326,0 c 0,-25.114 -20.377,-45.49 -45.49,-45.49 -25.114,0 -45.49,20.376 -45.49,45.49 0,25.111 20.376,45.487 45.49,45.487 25.113,0 45.49,-20.376 45.49,-45.487 z m 106.138,75.814 h -71.131 l -15.495,30.327 h 64.77 l 32.726,98.205 -10.454,11.551 c 11.136,10.062 16.909,19.336 16.941,19.368 l 3.197,-1.923 28.343,85.076 H 42.053 L 72.44,333.495 c 1.066,0.741 1.893,1.451 3.078,2.188 l 16.113,-25.646 c -3.614,-2.282 -6.576,-4.532 -9.183,-6.632 l 30.388,-91.125 h 64.795 C 171.204,199.721 166.14,189.803 162.143,181.953 H 90.978 L 0,454.885 h 485.211 z"
           inkscape:connector-curvature="0"
           style="fill:#49dd9b;fill-opacity:1" />
      </g>
      <g
         id="g5344"
         style="fill:#49dd9b;fill-opacity:1" />
      <g
         id="g5346"
         style="fill:#49dd9b;fill-opacity:1" />
      <g
         id="g5348"
         style="fill:#49dd9b;fill-opacity:1" />
      <g
         id="g5350"
         style="fill:#49dd9b;fill-opacity:1" />
      <g
         id="g5352"
         style="fill:#49dd9b;fill-opacity:1" />
      <g
         id="g5354"
         style="fill:#49dd9b;fill-opacity:1" />
      <g
         id="g5356"
         style="fill:#49dd9b;fill-opacity:1" />
      <g
         id="g5358"
         style="fill:#49dd9b;fill-opacity:1" />
      <g
         id="g5360"
         style="fill:#49dd9b;fill-opacity:1" />
      <g
         id="g5362"
         style="fill:#49dd9b;fill-opacity:1" />
      <g
         id="g5364"
         style="fill:#49dd9b;fill-opacity:1" />
      <g
         id="g5366"
         style="fill:#49dd9b;fill-opacity:1" />
      <g
         id="g5368"
         style="fill:#49dd9b;fill-opacity:1" />
      <g
         id="g5370"
         style="fill:#49dd9b;fill-opacity:1" />
      <g
         id="g5372"
         style="fill:#49dd9b;fill-opacity:1" />
    </g>
  </g>
</svg>
