<?xml version="1.0" encoding="UTF-8" standalone="no"?>
<!-- Created with Inkscape (http://www.inkscape.org/) -->

<svg
   xmlns:dc="http://purl.org/dc/elements/1.1/"
   xmlns:cc="http://creativecommons.org/ns#"
   xmlns:rdf="http://www.w3.org/1999/02/22-rdf-syntax-ns#"
   xmlns:svg="http://www.w3.org/2000/svg"
   xmlns="http://www.w3.org/2000/svg"
   xmlns:sodipodi="http://sodipodi.sourceforge.net/DTD/sodipodi-0.dtd"
   xmlns:inkscape="http://www.inkscape.org/namespaces/inkscape"
   width="99.999283mm"
   height="92.960129mm"
   viewBox="0 0 99.999283 92.960129"
   version="1.1"
   id="svg8080"
   inkscape:version="0.92.0 r15299"
   sodipodi:docname="salaman.svg">
  <defs
     id="defs8074" />
  <sodipodi:namedview
     id="base"
     pagecolor="#ffffff"
     bordercolor="#666666"
     borderopacity="1.0"
     inkscape:pageopacity="0.0"
     inkscape:pageshadow="2"
     inkscape:zoom="0.38"
     inkscape:cx="-452.45354"
     inkscape:cy="155.6727"
     inkscape:document-units="mm"
     inkscape:current-layer="layer1"
     showgrid="false"
     fit-margin-top="0"
     fit-margin-left="0"
     fit-margin-right="0"
     fit-margin-bottom="0"
     inkscape:window-width="1920"
     inkscape:window-height="1017"
     inkscape:window-x="-8"
     inkscape:window-y="-8"
     inkscape:window-maximized="1" />
  <metadata
     id="metadata8077">
    <rdf:RDF>
      <cc:Work
         rdf:about="">
        <dc:format>image/svg+xml</dc:format>
        <dc:type
           rdf:resource="http://purl.org/dc/dcmitype/StillImage" />
        <dc:title></dc:title>
      </cc:Work>
    </rdf:RDF>
  </metadata>
  <g
     inkscape:label="Layer 1"
     inkscape:groupmode="layer"
     id="layer1"
     transform="translate(-42.226545,-97.061604)">
    <g
       id="g6954"
       transform="matrix(0.33664496,0,0,0.33664496,42.226423,93.541981)"
       style="fill:#49dd9b;fill-opacity:1">
      <g
         id="g6898"
         style="fill:#49dd9b;fill-opacity:1">
        <path
           id="path6896"
           d="M 291.919,85.301 222.355,15.626 c -3.324,-3.333 -7.755,-5.171 -12.47,-5.171 -3.72,0 -7.335,1.18 -10.33,3.347 l -1.929,1.1 -89.508,12.311 c -2.05,0.076 -4.036,0.401 -5.934,0.939 l -3.141,-2.953 c -0.129,-0.121 -0.261,-0.24 -0.395,-0.355 -3.194,-2.748 -7.273,-4.261 -11.487,-4.261 -4.714,0 -9.145,1.838 -12.474,5.176 L 5.132,95.425 c -6.219,6.233 -6.864,16.195 -1.505,23.175 0.185,0.239 0.378,0.473 0.579,0.698 l 29.846,33.319 c 0.967,4.03 2.293,8.183 3.95,12.439 -7.239,8.719 -6.783,21.715 1.385,29.886 0.014,0.014 0.028,0.027 0.042,0.041 l 0.097,0.096 c 4.099,4.084 9.513,6.358 15.282,6.46 -0.107,0.893 -0.181,1.792 -0.181,2.705 0,5.923 2.302,11.491 6.483,15.686 l 0.089,0.09 c 0.014,0.014 0.027,0.028 0.041,0.042 4.197,4.197 9.777,6.51 15.713,6.51 0.688,0 1.368,-0.038 2.045,-0.1 0.066,0.075 0.137,0.15 0.204,0.226 -0.012,0.301 -0.044,0.599 -0.044,0.901 0,5.924 2.303,11.494 6.485,15.688 l 0.092,0.094 c 0.013,0.013 0.025,0.025 0.038,0.038 4.196,4.196 9.776,6.507 15.712,6.507 0.015,0 0.029,-0.002 0.044,-0.002 l 2.118,2.118 c 0.246,5.559 2.501,10.753 6.461,14.713 0.025,0.024 0.051,0.05 0.076,0.075 l 0.077,0.076 c 3.952,3.93 9.128,6.168 14.663,6.413 l 5.855,5.856 c 4.783,4.783 11.157,7.417 17.947,7.417 7.814,0 15.076,-3.513 19.924,-9.639 2.636,-3.329 4.295,-7.151 5.002,-11.11 l 3.677,3.678 c 4.857,4.856 11.566,7.643 18.406,7.643 5.648,0 11.172,-1.91 15.555,-5.38 4.869,-3.853 8.134,-9.344 9.23,-15.386 4.696,4.017 10.766,6.289 16.942,6.289 5.647,0 11.172,-1.911 15.555,-5.38 5.679,-4.495 9.177,-11.218 9.596,-18.444 0.39,-6.715 -1.895,-13.293 -6.303,-18.286 4.077,-0.719 7.942,-2.432 11.184,-4.997 5.68,-4.495 9.177,-11.218 9.596,-18.444 0.42,-7.239 -2.268,-14.32 -7.375,-19.427 l -9.433,-9.433 c 0.344,-0.342 0.673,-0.7 0.976,-1.086 17.664,-22.508 27.176,-39.253 30.683,-54.068 0.275,-0.484 0.518,-0.988 0.724,-1.508 l 1.948,-4.908 c 4.024,-6.816 3.013,-15.685 -2.694,-21.405 z M 55.207,189.559 c -2.615,0 -5.229,-0.998 -7.226,-2.993 l -0.108,-0.107 c -3.989,-3.99 -3.989,-10.461 0,-14.45 l 7.994,-7.994 c 1.995,-1.996 4.609,-2.994 7.225,-2.994 2.616,0 5.231,0.998 7.228,2.994 l 0.105,0.107 c 3.992,3.99 3.992,10.461 0,14.451 l -7.992,7.993 c -1.996,1.994 -4.611,2.993 -7.226,2.993 z m 28.973,22.018 c -1.996,1.996 -4.611,2.994 -7.227,2.994 -2.615,0 -5.23,-0.998 -7.227,-2.994 L 69.62,211.47 c -3.991,-3.991 -3.991,-10.46 0,-14.451 l 18.912,-18.912 c 1.997,-1.996 4.612,-2.994 7.228,-2.994 2.616,0 5.231,0.998 7.227,2.994 l 0.107,0.106 c 3.99,3.991 3.99,10.462 0,14.451 z m 24.53,23.356 c -1.994,1.995 -4.609,2.992 -7.225,2.992 -2.616,0 -5.231,-0.997 -7.226,-2.992 l -0.108,-0.108 c -3.991,-3.99 -3.991,-10.461 0,-14.452 l 12.239,-12.241 c 1.996,-1.995 4.61,-2.992 7.226,-2.992 2.615,0 5.23,0.997 7.227,2.992 l 0.108,0.108 c 3.989,3.99 3.989,10.462 0,14.452 z m 17.216,26.434 c -2.615,0 -5.229,-0.998 -7.225,-2.993 l -0.108,-0.106 c -3.992,-3.991 -3.992,-10.463 0,-14.453 l 5.567,-5.567 c 1.996,-1.995 4.611,-2.993 7.227,-2.993 2.615,0 5.231,0.998 7.227,2.993 l 0.107,0.108 c 3.989,3.991 3.989,10.461 0,14.451 l -5.568,5.567 c -1.997,1.995 -4.612,2.993 -7.227,2.993 z m 33.316,8.139 c -2.684,3.391 -6.599,5.086 -10.515,5.086 -3.43,0 -6.86,-1.301 -9.462,-3.902 l -1.034,-1.034 c 1.212,-0.81 2.353,-1.743 3.406,-2.797 l 5.566,-5.565 c 3.92,-3.921 6.047,-8.956 6.419,-14.095 l 4.28,4.279 c 4.85,4.848 5.596,12.651 1.34,18.028 z M 261.23,186.193 c 5.573,5.572 5.179,14.941 -1.183,19.977 -2.383,1.886 -5.24,2.789 -8.107,2.789 -3.604,0 -7.221,-1.428 -9.921,-4.129 l -48.518,-48.518 c -1.26,-1.26 -2.91,-1.89 -4.561,-1.89 -1.65,0 -3.302,0.63 -4.561,1.89 v 0 c -2.551,2.55 -2.551,6.685 0,9.234 l 62.373,62.374 c 5.572,5.572 5.178,14.941 -1.183,19.977 -2.383,1.885 -5.24,2.789 -8.107,2.789 -3.604,0 -7.221,-1.429 -9.921,-4.129 L 165.46,184.476 c -1.276,-1.276 -2.949,-1.915 -4.623,-1.915 -1.673,0 -3.346,0.639 -4.623,1.915 -2.516,2.516 -2.516,6.595 0,9.11 l 48.811,48.811 c 5.572,5.572 5.178,14.941 -1.183,19.976 -2.383,1.886 -5.24,2.789 -8.107,2.789 -3.604,0 -7.22,-1.428 -9.921,-4.129 l -50.44,-50.441 c -0.888,-3.974 -2.853,-7.753 -5.938,-10.839 l -0.109,-0.109 c -3.482,-3.48 -7.919,-5.639 -12.713,-6.282 0.953,-2.499 1.472,-5.169 1.472,-7.924 0,-5.934 -2.311,-11.515 -6.507,-15.711 -0.012,-0.012 -0.024,-0.024 -0.036,-0.036 l -0.094,-0.093 c -4.194,-4.184 -9.766,-6.487 -15.69,-6.487 -3.925,0 -7.685,1.03 -11.001,2.929 -0.949,-3.883 -2.913,-7.455 -5.804,-10.36 l -0.072,-0.073 c -0.026,-0.026 -0.052,-0.053 -0.078,-0.079 -4.197,-4.197 -9.777,-6.509 -15.713,-6.509 -5.937,0 -11.517,2.313 -15.713,6.512 l -0.035,0.035 c -0.775,-2.412 -1.433,-4.802 -1.946,-7.161 -0.181,-0.825 -0.528,-1.601 -1.043,-2.271 L 13.145,111.291 c -1.716,-2.234 -1.512,-5.394 0.477,-7.388 L 83.184,34.232 c 1.093,-1.096 2.532,-1.649 3.978,-1.649 1.301,0 2.604,0.449 3.661,1.358 l 0.551,0.517 c -4.658,4.583 -7.555,10.95 -7.555,17.984 0,13.893 11.277,25.199 25.158,25.248 l 44.313,0.562 z m 22.671,-85.03 -2.391,6.024 c -0.515,0.67 -0.862,1.445 -1.043,2.271 -3.38,15.511 -15.294,33.305 -28.649,50.322 -16.99,-16.99 -93.427,-93.465 -93.427,-93.465 l -49.324,-0.626 c -7.286,0 -13.248,-5.962 -13.248,-13.248 0,-7.286 5.962,-13.247 13.248,-13.247 l 92.483,-12.72 c 0.01,-0.001 0.019,-0.006 0.026,-0.012 l 4.646,-2.65 c 1.057,-0.909 2.36,-1.358 3.661,-1.358 1.444,0 2.885,0.554 3.978,1.649 l 69.562,69.671 c 1.99,1.995 2.194,5.155 0.478,7.389 z"
           inkscape:connector-curvature="0"
           style="fill:#49dd9b;fill-opacity:1" />
      </g>
      <g
         id="g6900"
         style="fill:#49dd9b;fill-opacity:1" />
      <g
         id="g6902"
         style="fill:#49dd9b;fill-opacity:1" />
      <g
         id="g6904"
         style="fill:#49dd9b;fill-opacity:1" />
      <g
         id="g6906"
         style="fill:#49dd9b;fill-opacity:1" />
      <g
         id="g6908"
         style="fill:#49dd9b;fill-opacity:1" />
      <g
         id="g6910"
         style="fill:#49dd9b;fill-opacity:1" />
      <g
         id="g6912"
         style="fill:#49dd9b;fill-opacity:1" />
      <g
         id="g6914"
         style="fill:#49dd9b;fill-opacity:1" />
      <g
         id="g6916"
         style="fill:#49dd9b;fill-opacity:1" />
      <g
         id="g6918"
         style="fill:#49dd9b;fill-opacity:1" />
      <g
         id="g6920"
         style="fill:#49dd9b;fill-opacity:1" />
      <g
         id="g6922"
         style="fill:#49dd9b;fill-opacity:1" />
      <g
         id="g6924"
         style="fill:#49dd9b;fill-opacity:1" />
      <g
         id="g6926"
         style="fill:#49dd9b;fill-opacity:1" />
      <g
         id="g6928"
         style="fill:#49dd9b;fill-opacity:1" />
    </g>
  </g>
</svg>
